<?xml version="1.0" encoding="UTF-8" standalone="no"?>
<!DOCTYPE svg PUBLIC "-//W3C//DTD SVG 1.1//EN" "http://www.w3.org/Graphics/SVG/1.1/DTD/svg11.dtd">
<svg width="100%" height="100%" viewBox="0 0 280 50" version="1.1" xmlns="http://www.w3.org/2000/svg" xmlns:xlink="http://www.w3.org/1999/xlink" xml:space="preserve" xmlns:serif="http://www.serif.com/" style="fill-rule:evenodd;clip-rule:evenodd;stroke-linejoin:round;stroke-miterlimit:2;">
    <g transform="matrix(2.97603,0,0,2.97603,-465.687,-179.056)">
        <path d="M165.006,74.431C165.42,74.845 166.09,74.845 166.504,74.431L169.764,71.171C169.962,70.973 170.074,70.704 170.074,70.423L170.074,67.744C169.433,68.935 168.838,69.515 168.838,69.515L164.464,73.889L165.006,74.431Z" style="fill:rgb(182,34,80);fill-rule:nonzero;"/>
    </g>
    <g transform="matrix(2.97603,0,0,2.97603,-465.687,-179.056)">
        <path d="M163.382,64.583L159.821,68.144L161.125,69.447L164.947,65.624C165.226,65.346 165.638,65.286 165.976,65.44C165.534,65.148 164.605,64.594 163.7,64.421C163.586,64.457 163.478,64.511 163.382,64.583Z" style="fill:url(#_Linear1);"/>
    </g>
    <g transform="matrix(2.97603,0,0,2.97603,-465.687,-179.056)">
        <path d="M168.838,69.515C168.838,69.515 169.433,68.935 170.074,67.744L170.074,65.431C170.074,64.846 169.6,64.372 169.015,64.372L164.023,64.372C163.913,64.372 163.804,64.389 163.7,64.421C164.605,64.594 165.534,65.148 165.976,65.44C166.072,65.484 166.162,65.545 166.241,65.624L168.838,68.221C169.195,68.579 169.195,69.158 168.838,69.515Z" style="fill:url(#_Linear2);"/>
    </g>
    <g transform="matrix(2.97603,0,0,2.97603,-465.687,-179.056)">
        <path d="M161.546,62.747C161.133,62.333 160.462,62.333 160.049,62.747L156.789,66.007C156.59,66.205 156.479,66.475 156.479,66.755L156.479,69.434C157.12,68.243 157.715,67.663 157.715,67.663L162.089,63.289L161.546,62.747Z" style="fill:rgb(13,157,217);fill-rule:nonzero;"/>
    </g>
    <g transform="matrix(2.97603,0,0,2.97603,-465.687,-179.056)">
        <path d="M163.17,72.595L166.731,69.034L165.428,67.731L161.605,71.554C161.327,71.832 160.915,71.893 160.577,71.738C161.02,72.03 161.948,72.584 162.853,72.756C162.967,72.721 163.075,72.667 163.17,72.595Z" style="fill:url(#_Linear3);"/>
    </g>
    <g transform="matrix(2.97603,0,0,2.97603,-465.687,-179.056)">
        <path d="M157.715,67.663C157.715,67.663 157.12,68.243 156.479,69.434L156.479,71.747C156.479,72.332 156.953,72.806 157.538,72.806L162.53,72.806C162.64,72.806 162.749,72.789 162.853,72.756C161.948,72.584 161.02,72.03 160.577,71.738C160.481,71.693 160.391,71.633 160.312,71.554L157.715,68.957C157.357,68.6 157.357,68.02 157.715,67.663Z" style="fill:url(#_Linear4);"/>
    </g>
    <g transform="matrix(2.97603,0,0,2.97603,-465.687,-179.056)">
        <path d="M184.466,71.721L184.466,65.465L185.772,65.465L185.772,70.542L188.474,70.542L188.474,71.721L184.466,71.721Z" style="fill:white;fill-rule:nonzero;"/>
    </g>
    <g transform="matrix(2.97603,0,0,2.97603,-465.687,-179.056)">
        <path d="M192.01,70.27C192.01,70.452 192.101,70.542 192.282,70.542L194.241,70.542C194.422,70.542 194.513,70.452 194.513,70.27L194.513,66.915C194.513,66.734 194.422,66.644 194.241,66.644L192.282,66.644C192.101,66.644 192.01,66.734 192.01,66.915L192.01,70.27ZM190.705,70.198L190.705,66.988C190.705,65.973 191.212,65.465 192.228,65.465L194.295,65.465C195.311,65.465 195.818,65.973 195.818,66.988L195.818,70.198C195.818,71.213 195.311,71.721 194.295,71.721L192.228,71.721C191.212,71.721 190.705,71.213 190.705,70.198Z" style="fill:white;fill-rule:nonzero;"/>
    </g>
    <g transform="matrix(2.97603,0,0,2.97603,-465.687,-179.056)">
        <path d="M198.484,70.198L198.484,66.988C198.484,66.147 199.166,65.465 200.007,65.465L202.111,65.465C202.316,65.465 202.516,65.533 202.678,65.659C202.903,65.834 203.036,66.103 203.036,66.389L203.036,66.644L200.062,66.644C199.911,66.644 199.79,66.765 199.79,66.915L199.79,70.27C199.79,70.42 199.911,70.542 200.062,70.542L203.036,70.542L203.036,70.797C203.036,71.082 202.903,71.352 202.678,71.527C202.516,71.653 202.316,71.721 202.111,71.721L200.007,71.721C199.166,71.721 198.484,71.039 198.484,70.198Z" style="fill:white;fill-rule:nonzero;"/>
    </g>
    <g transform="matrix(2.97603,0,0,2.97603,-465.687,-179.056)">
        <rect x="205.592" y="65.465" width="1.306" height="6.256" style="fill:white;fill-rule:nonzero;"/>
    </g>
    <g transform="matrix(2.97603,0,0,2.97603,-465.687,-179.056)">
        <path d="M209.745,71.721L209.745,65.465L211.16,65.465L213.644,69.572L213.644,65.465L214.949,65.465L214.949,71.721L213.535,71.721L211.051,67.614L211.051,71.721L209.745,71.721Z" style="fill:white;fill-rule:nonzero;"/>
    </g>
    <g transform="matrix(2.97603,0,0,2.97603,-465.687,-179.056)">
        <path d="M224.488,71.721L224.488,65.465L225.793,65.465L225.793,67.94L228.006,65.465L229.089,65.465C229.175,65.465 229.253,65.514 229.291,65.592C229.331,65.674 229.317,65.772 229.256,65.84L227.28,68.04L229.509,71.348C229.555,71.416 229.563,71.504 229.529,71.58C229.49,71.665 229.405,71.721 229.311,71.721L228.259,71.721L226.437,68.983L225.793,69.681L225.793,71.721L224.488,71.721Z" style="fill:white;fill-rule:nonzero;"/>
    </g>
    <g transform="matrix(2.97603,0,0,2.97603,-465.687,-179.056)">
        <rect x="231.941" y="65.465" width="1.306" height="6.256" style="fill:white;fill-rule:nonzero;"/>
    </g>
    <g transform="matrix(2.97603,0,0,2.97603,-465.687,-179.056)">
        <rect x="235.86" y="71.044" width="0.608" height="0.677" style="fill:white;fill-rule:nonzero;"/>
    </g>
    <g transform="matrix(2.97603,0,0,2.97603,-465.687,-179.056)">
        <path d="M238.692,71.245L239.889,71.245C240.561,71.245 240.897,70.909 240.897,70.236L240.897,68.883C240.897,68.211 240.561,67.874 239.889,67.874L238.692,67.874L238.692,71.245ZM238.166,71.721L238.166,67.398L239.857,67.398C240.901,67.398 241.423,67.921 241.423,68.965L241.423,70.155C241.423,71.199 240.901,71.721 239.857,71.721L238.166,71.721Z" style="fill:white;fill-rule:nonzero;"/>
    </g>
    <g transform="matrix(2.97603,0,0,2.97603,-465.687,-179.056)">
        <path d="M243.052,71.721L243.052,67.398L245.871,67.398L245.871,67.874L243.578,67.874L243.578,69.215L245.683,69.215L245.683,69.691L243.578,69.691L243.578,71.245L245.871,71.245L245.871,71.721L243.052,71.721Z" style="fill:white;fill-rule:nonzero;"/>
    </g>
    <g transform="matrix(2.97603,0,0,2.97603,-465.687,-179.056)">
        <path d="M250.008,67.398L248.828,71.23L248.677,71.23L247.503,67.398L246.941,67.398L248.301,71.721L249.204,71.721L250.564,67.398L250.008,67.398Z" style="fill:white;fill-rule:nonzero;"/>
    </g>
    <g transform="matrix(2.97603,0,0,2.97603,-465.687,-179.056)">
        <path d="M178.803,66.613L181.705,66.613L181.705,66.121C181.705,65.754 181.408,65.457 181.041,65.457L178.077,65.457C177.757,65.457 177.499,65.716 177.499,66.035L177.499,68.589C177.499,68.66 177.512,68.727 177.535,68.79C177.617,69.01 177.828,69.167 178.077,69.167L180.587,69.167L180.587,70.565L177.499,70.565L177.499,71.058C177.499,71.424 177.825,71.721 178.192,71.721L181.313,71.721C181.633,71.721 181.892,71.462 181.892,71.143L181.892,68.589C181.892,68.519 181.878,68.451 181.855,68.388C181.773,68.168 181.562,68.011 181.313,68.011L178.803,68.011L178.803,66.613Z" style="fill:white;fill-rule:nonzero;"/>
    </g>
    <g transform="matrix(2.97603,0,0,2.97603,-465.687,-179.056)">
        <path d="M218.824,66.613L221.726,66.613L221.726,66.121C221.726,65.754 221.429,65.457 221.063,65.457L218.098,65.457C217.779,65.457 217.52,65.716 217.52,66.035L217.52,68.589C217.52,68.66 217.533,68.727 217.557,68.79C217.638,69.01 217.85,69.167 218.098,69.167L220.608,69.167L220.608,70.565L217.52,70.565L217.52,71.058C217.52,71.424 217.847,71.721 218.213,71.721L221.335,71.721C221.654,71.721 221.913,71.462 221.913,71.143L221.913,68.589C221.913,68.519 221.899,68.451 221.876,68.388C221.794,68.168 221.583,68.011 221.335,68.011L218.824,68.011L218.824,66.613Z" style="fill:white;fill-rule:nonzero;"/>
    </g>
    <defs>
        <linearGradient id="_Linear1" x1="0" y1="0" x2="1" y2="0" gradientUnits="userSpaceOnUse" gradientTransform="matrix(4.42887,-4.42887,4.42887,4.42887,160.684,69.0062)"><stop offset="0" style="stop-color:rgb(182,34,80);stop-opacity:1"/><stop offset="1" style="stop-color:white;stop-opacity:1"/></linearGradient>
        <linearGradient id="_Linear2" x1="0" y1="0" x2="1" y2="0" gradientUnits="userSpaceOnUse" gradientTransform="matrix(4.30337,4.70183,-4.70183,4.30337,166.544,64.3458)"><stop offset="0" style="stop-color:rgb(182,34,80);stop-opacity:1"/><stop offset="1" style="stop-color:white;stop-opacity:1"/></linearGradient>
        <linearGradient id="_Linear3" x1="0" y1="0" x2="1" y2="0" gradientUnits="userSpaceOnUse" gradientTransform="matrix(-4.42887,4.42887,-4.42887,-4.42887,165.869,68.1709)"><stop offset="0" style="stop-color:rgb(13,157,217);stop-opacity:1"/><stop offset="0.4" style="stop-color:rgb(82,198,239);stop-opacity:1"/><stop offset="1" style="stop-color:white;stop-opacity:1"/></linearGradient>
        <linearGradient id="_Linear4" x1="0" y1="0" x2="1" y2="0" gradientUnits="userSpaceOnUse" gradientTransform="matrix(-4.30337,-4.70183,4.70183,-4.30337,160.009,72.8313)"><stop offset="0" style="stop-color:rgb(13,157,217);stop-opacity:1"/><stop offset="0.4" style="stop-color:rgb(82,198,239);stop-opacity:1"/><stop offset="1" style="stop-color:white;stop-opacity:1"/></linearGradient>
    </defs>
</svg>
