<?xml version="1.0" encoding="UTF-8" standalone="no"?>
<!DOCTYPE svg PUBLIC "-//W3C//DTD SVG 1.1//EN" "http://www.w3.org/Graphics/SVG/1.1/DTD/svg11.dtd">
<svg width="100%" height="100%" viewBox="0 0 280 50" version="1.1" xmlns="http://www.w3.org/2000/svg" xmlns:xlink="http://www.w3.org/1999/xlink" xml:space="preserve" xmlns:serif="http://www.serif.com/" style="fill-rule:evenodd;clip-rule:evenodd;stroke-linejoin:round;stroke-miterlimit:2;">
    <g transform="matrix(2.97603,0,0,2.97603,-61.8955,-179.122)">
        <path d="M29.325,74.431C29.739,74.844 30.409,74.844 30.823,74.431L34.082,71.171C34.281,70.973 34.392,70.704 34.392,70.423L34.392,67.744C33.751,68.935 33.157,69.515 33.157,69.515L28.783,73.889L29.325,74.431Z" style="fill:rgb(182,34,80);fill-rule:nonzero;"/>
    </g>
    <g transform="matrix(2.97603,0,0,2.97603,-61.8955,-179.122)">
        <path d="M27.701,64.583L24.14,68.144L25.443,69.447L29.266,65.624C29.544,65.346 29.957,65.286 30.294,65.44C29.852,65.148 28.924,64.594 28.019,64.422C27.904,64.457 27.797,64.511 27.701,64.583Z" style="fill:url(#_Linear1);"/>
    </g>
    <g transform="matrix(2.97603,0,0,2.97603,-61.8955,-179.122)">
        <path d="M33.157,69.515C33.157,69.515 33.751,68.935 34.392,67.744L34.392,65.431C34.392,64.846 33.918,64.372 33.334,64.372L28.342,64.372C28.231,64.372 28.123,64.389 28.019,64.422C28.924,64.594 29.852,65.148 30.294,65.44C30.39,65.485 30.48,65.545 30.56,65.624L33.157,68.221C33.514,68.579 33.514,69.158 33.157,69.515Z" style="fill:url(#_Linear2);"/>
    </g>
    <g transform="matrix(2.97603,0,0,2.97603,-61.8955,-179.122)">
        <path d="M25.865,62.747C25.452,62.333 24.781,62.333 24.368,62.747L21.108,66.007C20.91,66.206 20.798,66.475 20.798,66.755L20.798,69.434C21.439,68.243 22.034,67.663 22.034,67.663L26.407,63.29L25.865,62.747Z" style="fill:rgb(13,157,217);fill-rule:nonzero;"/>
    </g>
    <g transform="matrix(2.97603,0,0,2.97603,-61.8955,-179.122)">
        <path d="M27.489,72.595L31.05,69.034L29.747,67.731L25.924,71.554C25.646,71.832 25.234,71.893 24.896,71.737C25.338,72.029 26.267,72.584 27.172,72.756C27.286,72.721 27.394,72.667 27.489,72.595Z" style="fill:url(#_Linear3);"/>
    </g>
    <g transform="matrix(2.97603,0,0,2.97603,-61.8955,-179.122)">
        <path d="M22.034,67.663C22.034,67.663 21.439,68.243 20.798,69.434L20.798,71.747C20.798,72.332 21.272,72.806 21.857,72.806L26.849,72.806C26.959,72.806 27.068,72.789 27.172,72.756C26.267,72.584 25.338,72.029 24.896,71.737C24.8,71.693 24.71,71.633 24.63,71.554L22.034,68.957C21.676,68.6 21.676,68.02 22.034,67.663Z" style="fill:url(#_Linear4);"/>
    </g>
    <g transform="matrix(2.97603,0,0,2.97603,-61.8955,-179.122)">
        <path d="M48.785,71.721L48.785,65.465L50.091,65.465L50.091,70.542L52.793,70.542L52.793,71.721L48.785,71.721Z" style="fill:rgb(27,21,70);fill-rule:nonzero;"/>
    </g>
    <g transform="matrix(2.97603,0,0,2.97603,-61.8955,-179.122)">
        <path d="M56.329,70.27C56.329,70.452 56.419,70.542 56.601,70.542L58.559,70.542C58.741,70.542 58.831,70.452 58.831,70.27L58.831,66.915C58.831,66.734 58.741,66.644 58.559,66.644L56.601,66.644C56.419,66.644 56.329,66.734 56.329,66.915L56.329,70.27ZM55.023,70.198L55.023,66.988C55.023,65.973 55.531,65.465 56.546,65.465L58.614,65.465C59.629,65.465 60.137,65.973 60.137,66.988L60.137,70.198C60.137,71.213 59.629,71.721 58.614,71.721L56.546,71.721C55.531,71.721 55.023,71.213 55.023,70.198Z" style="fill:rgb(27,21,70);fill-rule:nonzero;"/>
    </g>
    <g transform="matrix(2.97603,0,0,2.97603,-61.8955,-179.122)">
        <path d="M62.803,70.198L62.803,66.988C62.803,66.147 63.484,65.465 64.326,65.465L66.43,65.465C66.635,65.465 66.835,65.533 66.997,65.659C67.222,65.834 67.354,66.103 67.354,66.389L67.354,66.644L64.38,66.644C64.23,66.644 64.108,66.765 64.108,66.915L64.108,70.27C64.108,70.42 64.23,70.542 64.38,70.542L67.354,70.542L67.354,70.797C67.354,71.082 67.222,71.352 66.997,71.527C66.835,71.653 66.635,71.721 66.43,71.721L64.326,71.721C63.484,71.721 62.803,71.039 62.803,70.198Z" style="fill:rgb(27,21,70);fill-rule:nonzero;"/>
    </g>
    <g transform="matrix(2.97603,0,0,2.97603,-61.8955,-179.122)">
        <rect x="69.911" y="65.465" width="1.305" height="6.256" style="fill:rgb(27,21,70);fill-rule:nonzero;"/>
    </g>
    <g transform="matrix(2.97603,0,0,2.97603,-61.8955,-179.122)">
        <path d="M74.064,71.721L74.064,65.465L75.478,65.465L77.962,69.572L77.962,65.465L79.268,65.465L79.268,71.721L77.854,71.721L75.369,67.614L75.369,71.721L74.064,71.721Z" style="fill:rgb(27,21,70);fill-rule:nonzero;"/>
    </g>
    <g transform="matrix(2.97603,0,0,2.97603,-61.8955,-179.122)">
        <path d="M88.806,71.721L88.806,65.465L90.112,65.465L90.112,67.94L92.324,65.465L93.407,65.465C93.494,65.465 93.572,65.514 93.61,65.592C93.649,65.674 93.636,65.772 93.575,65.84L91.599,68.04L93.828,71.348C93.874,71.416 93.881,71.504 93.848,71.58C93.809,71.665 93.724,71.721 93.629,71.721L92.578,71.721L90.756,68.983L90.112,69.681L90.112,71.721L88.806,71.721Z" style="fill:rgb(27,21,70);fill-rule:nonzero;"/>
    </g>
    <g transform="matrix(2.97603,0,0,2.97603,-61.8955,-179.122)">
        <rect x="96.259" y="65.465" width="1.306" height="6.256" style="fill:rgb(27,21,70);fill-rule:nonzero;"/>
    </g>
    <g transform="matrix(2.97603,0,0,2.97603,-61.8955,-179.122)">
        <rect x="100.18" y="71.044" width="0.607" height="0.677" style="fill:rgb(27,21,70);fill-rule:nonzero;"/>
    </g>
    <g transform="matrix(2.97603,0,0,2.97603,-61.8955,-179.122)">
        <path d="M103.011,71.245L104.208,71.245C104.88,71.245 105.216,70.909 105.216,70.236L105.216,68.883C105.216,68.211 104.88,67.874 104.208,67.874L103.011,67.874L103.011,71.245ZM102.485,71.721L102.485,67.398L104.176,67.398C105.22,67.398 105.742,67.921 105.742,68.965L105.742,70.155C105.742,71.199 105.22,71.721 104.176,71.721L102.485,71.721Z" style="fill:rgb(27,21,70);fill-rule:nonzero;"/>
    </g>
    <g transform="matrix(2.97603,0,0,2.97603,-61.8955,-179.122)">
        <path d="M107.371,71.721L107.371,67.398L110.19,67.398L110.19,67.874L107.897,67.874L107.897,69.215L110.002,69.215L110.002,69.691L107.897,69.691L107.897,71.245L110.19,71.245L110.19,71.721L107.371,71.721Z" style="fill:rgb(27,21,70);fill-rule:nonzero;"/>
    </g>
    <g transform="matrix(2.97603,0,0,2.97603,-61.8955,-179.122)">
        <path d="M114.328,67.398L113.147,71.23L112.997,71.23L111.822,67.398L111.26,67.398L112.621,71.721L113.522,71.721L114.883,67.398L114.328,67.398Z" style="fill:rgb(27,21,70);fill-rule:nonzero;"/>
    </g>
    <g transform="matrix(2.97603,0,0,2.97603,-61.8955,-179.122)">
        <path d="M43.122,66.613L46.023,66.613L46.023,66.121C46.023,65.754 45.726,65.457 45.36,65.457L42.396,65.457C42.076,65.457 41.817,65.716 41.817,66.035L41.817,68.589C41.817,68.66 41.831,68.727 41.854,68.79C41.936,69.01 42.147,69.167 42.396,69.167L44.906,69.167L44.906,70.565L41.817,70.565L41.817,71.058C41.817,71.424 42.144,71.721 42.511,71.721L45.632,71.721C45.952,71.721 46.21,71.462 46.21,71.143L46.21,68.589C46.21,68.519 46.197,68.451 46.174,68.388C46.092,68.168 45.881,68.011 45.632,68.011L43.122,68.011L43.122,66.613Z" style="fill:rgb(27,21,70);fill-rule:nonzero;"/>
    </g>
    <g transform="matrix(2.97603,0,0,2.97603,-61.8955,-179.122)">
        <path d="M83.143,66.613L86.044,66.613L86.044,66.121C86.044,65.754 85.748,65.457 85.381,65.457L82.417,65.457C82.098,65.457 81.838,65.716 81.838,66.035L81.838,68.589C81.838,68.66 81.852,68.727 81.875,68.79C81.957,69.01 82.168,69.167 82.417,69.167L84.927,69.167L84.927,70.565L81.838,70.565L81.838,71.058C81.838,71.424 82.166,71.721 82.532,71.721L85.653,71.721C85.973,71.721 86.231,71.462 86.231,71.143L86.231,68.589C86.231,68.519 86.218,68.451 86.195,68.388C86.113,68.168 85.902,68.011 85.653,68.011L83.143,68.011L83.143,66.613Z" style="fill:rgb(27,21,70);fill-rule:nonzero;"/>
    </g>
    <defs>
        <linearGradient id="_Linear1" x1="0" y1="0" x2="1" y2="0" gradientUnits="userSpaceOnUse" gradientTransform="matrix(4.42866,-4.42866,4.42866,4.42866,25.0035,69.0062)"><stop offset="0" style="stop-color:rgb(182,34,80);stop-opacity:1"/><stop offset="1" style="stop-color:rgb(27,21,70);stop-opacity:1"/></linearGradient>
        <linearGradient id="_Linear2" x1="0" y1="0" x2="1" y2="0" gradientUnits="userSpaceOnUse" gradientTransform="matrix(4.30317,4.70162,-4.70162,4.30317,30.8634,64.346)"><stop offset="0" style="stop-color:rgb(182,34,80);stop-opacity:1"/><stop offset="1" style="stop-color:rgb(27,21,70);stop-opacity:1"/></linearGradient>
        <linearGradient id="_Linear3" x1="0" y1="0" x2="1" y2="0" gradientUnits="userSpaceOnUse" gradientTransform="matrix(-4.42866,4.42866,-4.42866,-4.42866,30.1878,68.1709)"><stop offset="0" style="stop-color:rgb(13,157,217);stop-opacity:1"/><stop offset="0.6" style="stop-color:rgb(18,86,138);stop-opacity:1"/><stop offset="1" style="stop-color:rgb(27,21,70);stop-opacity:1"/></linearGradient>
        <linearGradient id="_Linear4" x1="0" y1="0" x2="1" y2="0" gradientUnits="userSpaceOnUse" gradientTransform="matrix(-4.30317,-4.70162,4.70162,-4.30317,24.3279,72.8311)"><stop offset="0" style="stop-color:rgb(13,157,217);stop-opacity:1"/><stop offset="0.6" style="stop-color:rgb(18,86,138);stop-opacity:1"/><stop offset="1" style="stop-color:rgb(27,21,70);stop-opacity:1"/></linearGradient>
    </defs>
</svg>
