<svg width="1440" height="228" viewBox="0 0 1440 228" fill="none" xmlns="http://www.w3.org/2000/svg">
<path fill-rule="evenodd" clip-rule="evenodd" d="M-429 72.6828L-380.021 81.0783C-331.042 90.0735 -233.083 106.865 -135.125 98.469C-37.1667 90.0735 60.7917 55.2921 158.75 72.6828C256.708 90.0735 354.667 159.037 452.625 167.432C550.583 176.427 648.542 124.255 746.5 120.058C844.458 115.86 942.417 159.037 1040.37 141.646C1138.33 124.255 1236.29 46.8965 1334.25 16.3128C1432.21 -13.6712 1530.17 3.71955 1628.12 20.5106C1726.08 37.9013 1824.04 55.2921 1873.02 63.6876L1922 72.6828V228H1873.02C1824.04 228 1726.08 228 1628.12 228C1530.17 228 1432.21 228 1334.25 228C1236.29 228 1138.33 228 1040.37 228C942.417 228 844.458 228 746.5 228C648.542 228 550.583 228 452.625 228C354.667 228 256.708 228 158.75 228C60.7917 228 -37.1667 228 -135.125 228C-233.083 228 -331.042 228 -380.021 228H-429V72.6828Z" fill="#F2F2F2"/>
</svg>
